<svg xmlns="http://www.w3.org/2000/svg" version="1.1" xmlns:xlink="http://www.w3.org/1999/xlink" xmlns:svgjs="http://svgjs.dev/svgjs" width="1000" height="1000"><style>
    #light-icon {
      display: inline;
    }
    #dark-icon {
      display: none;
    }

    @media (prefers-color-scheme: dark) {
      #light-icon {
        display: none;
      }
      #dark-icon {
        display: inline;
      }
    }
  </style><g id="light-icon"><svg xmlns="http://www.w3.org/2000/svg" version="1.1" xmlns:xlink="http://www.w3.org/1999/xlink" xmlns:svgjs="http://svgjs.dev/svgjs" width="1000" height="1000"><g><g transform="matrix(1.6603297414866593,0,0,1.6603297414866593,1.9010775540021996,0)"><svg xmlns="http://www.w3.org/2000/svg" version="1.1" xmlns:xlink="http://www.w3.org/1999/xlink" xmlns:svgjs="http://svgjs.dev/svgjs" width="600" height="602.29"><svg id="a" data-name="Слой 1" xmlns="http://www.w3.org/2000/svg" viewBox="0 0 600 602.29">
  <path d="M149.21,186.51c16.06-2.05,31.36-2.43,45.91-1.12,19.59,1.77,30.1,9.52,31.53,23.26.47,4.53-.12,8.05-1.8,10.56-1.65,2.5-6.14,6.43-13.43,11.79-6.11,4.42-9.55,12.85-10.31,25.28-.79,12.44.66,36.3,4.34,71.58,6.2,59.63,11.38,96.38,15.54,110.24,1.46,4.4,3.33,7.69,5.63,9.83,2.28,2.18,6.12,4.33,11.48,6.49,9.78,3.5,15.14,9.69,16.06,18.59,1.3,12.49-6.4,22.17-23.09,29.05-18.07,7.37-40.56,12.78-67.46,16.21-45.92,5.87-69.89-.88-71.9-20.23-.73-7.02,3.09-14.16,11.47-21.4,6.41-5.57,9.83-12.49,10.26-20.77.82-18.14-1.77-56.09-7.78-113.84-4.16-39.96-8.65-65.33-13.48-76.1-2.64-6.15-7.96-11.32-15.96-15.52-6.21-3.48-10.45-6.49-12.72-9.05-2.26-2.56-3.62-6.02-4.08-10.39-.7-6.71,1.66-12.44,7.11-17.15,5.42-4.74,15.37-9.6,29.83-14.62,17.2-6.15,34.82-10.38,52.85-12.69Z"></path>
  <path d="M381.15,145.23l75.7,101.35c7.1,9.46,12.48,14.52,16.14,15.17,6.14,1.1,10.27-5.61,12.38-20.13,2.4-16.48,3.16-27.89,2.27-34.23-.89-6.34-3.95-11.51-9.18-15.54-4.24-3.31-7.1-6.53-8.58-9.7-1.48-3.14-1.89-6.94-1.25-11.39,1.6-10.99,9.42-16.84,23.45-17.55,5.74-.31,15.51.76,29.32,3.24,17.82,3.19,29.99,6.58,36.49,10.16,10.33,5.61,14.74,13.51,13.26,23.72-1.24,8.5-6.6,14.12-16.08,16.85-3.79,1.07-6.43,2.14-7.92,3.21-1.49,1.08-2.9,2.84-4.22,5.28-4.45,8.06-8.48,24.12-12.11,48.17l-9.33,63.97c-1.43,9.81-3.33,23.23-5.69,40.26-3.24,23.05-6.9,39.44-10.99,49.18-5.04,12.12-11.75,17.43-20.13,15.93-3.66-.66-6.69-2.07-9.11-4.25-2.4-2.17-6.23-6.89-11.47-14.14l-89.8-123.01c-6.25-8.64-11.8-13.39-16.63-14.26-7.2-1.29-12.41,9.12-15.64,31.23-2.65,18.18-3.55,30.78-2.7,37.78.86,7,3.9,12.58,9.1,16.73,7.28,5.73,10.41,12.07,9.4,19-2.65,18.18-21.62,24.12-56.92,17.8-15.94-2.85-27.97-7.4-36.08-13.6-8.12-6.22-11.55-13.59-10.31-22.09.65-4.45,1.96-7.64,3.94-9.56,1.98-1.93,6.13-4.27,12.47-7.03,6.08-2.67,10.39-8.54,12.92-17.62,4.47-16.52,9.01-40.61,13.62-72.27,4.92-33.75,6.74-58.67,5.45-74.74-.48-5.86-1.52-10.34-3.13-13.45s-4.53-6.32-8.77-9.63c-4.89-3.83-8.18-7.3-9.84-10.42-1.67-3.12-2.21-6.64-1.63-10.56,1.83-12.56,12.72-18.73,32.68-18.51,6.76.14,18.41,1.69,34.93,4.65,9.44,1.69,16.19,3.75,20.26,6.15,4.07,2.41,8.64,7.01,13.71,13.83Z"></path>
  <path d="M589.18,333.69s32.08,159.4-174.28,177.51c-206.35,18.11-133.51,124.47,4.34,80.53,137.86-43.93,209.49-134.44,169.93-258.05Z"></path>
  <path d="M10.82,268.59S-21.25,109.19,185.1,91.08c206.35-18.11,133.51-124.47-4.34-80.53C42.9,54.48-28.74,144.99,10.82,268.59Z"></path>
</svg></svg></g></g></svg></g><g id="dark-icon"><svg xmlns="http://www.w3.org/2000/svg" version="1.1" xmlns:xlink="http://www.w3.org/1999/xlink" xmlns:svgjs="http://svgjs.dev/svgjs" width="1000" height="1000"><g><g transform="matrix(1.6603297414866593,0,0,1.6603297414866593,1.9010775540021996,0)"><svg xmlns="http://www.w3.org/2000/svg" version="1.1" xmlns:xlink="http://www.w3.org/1999/xlink" xmlns:svgjs="http://svgjs.dev/svgjs" width="600" height="602.29"><svg id="a" data-name="Слой 1" xmlns="http://www.w3.org/2000/svg" viewBox="0 0 600 602.29">
  <defs>
    <style>
      .b {
        fill: #fff;
      }
    </style>
  </defs>
  <path class="b" d="M149.21,186.51c16.06-2.05,31.36-2.43,45.91-1.12,19.59,1.77,30.1,9.52,31.53,23.26.47,4.53-.12,8.05-1.8,10.56-1.65,2.5-6.14,6.43-13.43,11.79-6.11,4.42-9.55,12.85-10.31,25.28-.79,12.44.66,36.3,4.34,71.58,6.2,59.63,11.38,96.38,15.54,110.24,1.46,4.4,3.33,7.69,5.63,9.83,2.28,2.18,6.12,4.33,11.48,6.49,9.78,3.5,15.14,9.69,16.06,18.59,1.3,12.49-6.4,22.17-23.09,29.05-18.07,7.37-40.56,12.78-67.46,16.21-45.92,5.87-69.89-.88-71.9-20.23-.73-7.02,3.09-14.16,11.47-21.4,6.41-5.57,9.83-12.49,10.26-20.77.82-18.14-1.77-56.09-7.78-113.84-4.16-39.96-8.65-65.33-13.48-76.1-2.64-6.15-7.96-11.32-15.96-15.52-6.21-3.48-10.45-6.49-12.72-9.05-2.26-2.56-3.62-6.02-4.08-10.39-.7-6.71,1.66-12.44,7.11-17.15,5.42-4.74,15.37-9.6,29.83-14.62,17.2-6.15,34.82-10.38,52.85-12.69Z"></path>
  <path class="b" d="M381.15,145.23l75.7,101.35c7.1,9.46,12.48,14.52,16.14,15.17,6.14,1.1,10.27-5.61,12.38-20.13,2.4-16.48,3.16-27.89,2.27-34.23-.89-6.34-3.95-11.51-9.18-15.54-4.24-3.31-7.1-6.53-8.58-9.7-1.48-3.14-1.89-6.94-1.25-11.39,1.6-10.99,9.42-16.84,23.45-17.55,5.74-.31,15.51.76,29.32,3.24,17.82,3.19,29.99,6.58,36.49,10.16,10.33,5.61,14.74,13.51,13.26,23.72-1.24,8.5-6.6,14.12-16.08,16.85-3.79,1.07-6.43,2.14-7.92,3.21-1.49,1.08-2.9,2.84-4.22,5.28-4.45,8.06-8.48,24.12-12.11,48.17l-9.33,63.97c-1.43,9.81-3.33,23.23-5.69,40.26-3.24,23.05-6.9,39.44-10.99,49.18-5.04,12.12-11.75,17.43-20.13,15.93-3.66-.66-6.69-2.07-9.11-4.25-2.4-2.17-6.23-6.89-11.47-14.14l-89.8-123.01c-6.25-8.64-11.8-13.39-16.63-14.26-7.2-1.29-12.41,9.12-15.64,31.23-2.65,18.18-3.55,30.78-2.7,37.78.86,7,3.9,12.58,9.1,16.73,7.28,5.73,10.41,12.07,9.4,19-2.65,18.18-21.62,24.12-56.92,17.8-15.94-2.85-27.97-7.4-36.08-13.6-8.12-6.22-11.55-13.59-10.31-22.09.65-4.45,1.96-7.64,3.94-9.56,1.98-1.93,6.13-4.27,12.47-7.03,6.08-2.67,10.39-8.54,12.92-17.62,4.47-16.52,9.01-40.61,13.62-72.27,4.92-33.75,6.74-58.67,5.45-74.74-.48-5.86-1.52-10.34-3.13-13.45s-4.53-6.32-8.77-9.63c-4.89-3.83-8.18-7.3-9.84-10.42-1.67-3.12-2.21-6.64-1.63-10.56,1.83-12.56,12.72-18.73,32.68-18.51,6.76.14,18.41,1.69,34.93,4.65,9.44,1.69,16.19,3.75,20.26,6.15,4.07,2.41,8.64,7.01,13.71,13.83Z"></path>
  <path class="b" d="M589.18,333.69s32.08,159.4-174.28,177.51c-206.35,18.11-133.51,124.47,4.34,80.53,137.86-43.93,209.49-134.44,169.93-258.05Z"></path>
  <path class="b" d="M10.82,268.59S-21.25,109.19,185.1,91.08c206.35-18.11,133.51-124.47-4.34-80.53C42.9,54.48-28.74,144.99,10.82,268.59Z"></path>
</svg></svg></g></g></svg></g></svg>